<svg id="SvgjsSvg1001" width="288" height="288" xmlns="http://www.w3.org/2000/svg" version="1.1" xmlns:xlink="http://www.w3.org/1999/xlink" xmlns:svgjs="http://svgjs.com/svgjs"><defs id="SvgjsDefs1002"></defs><g id="SvgjsG1008" transform="matrix(0.916700005531311,0,0,0.916700005531311,11.994100570678711,11.94192886352539)"><svg xmlns="http://www.w3.org/2000/svg" viewBox="0 0 64 64" width="288" height="288"><g data-name="Intermittent Fasting, Diet, Fast, Fasting, Fat Burning" fill="#f5ee9e" class="color000 svgShape"><path d="M62,19.86c0-4.13-2.59-7.5-5.77-7.5s-5.76,3.37-5.76,7.5c0,3,1.33,5.64,3.37,6.84l-.7,21.74a3.1,3.1,0,1,0,6.19,0l-.7-21.74C60.67,25.5,62,22.85,62,19.86Zm-4.77,5.3a1,1,0,0,0-.62,1l.72,22.38a1.08,1.08,0,0,1-.31.8,1.13,1.13,0,0,1-1.58,0,1.08,1.08,0,0,1-.31-.8l.73-22.38a1,1,0,0,0-.62-1c-1.64-.67-2.77-2.85-2.77-5.3,0-3,1.72-5.5,3.76-5.5S60,16.88,60,19.86C60,22.31,58.86,24.49,57.23,25.16Z" fill="#f5ee9e" class="color000 svgShape"></path><path d="M57.16 20.9a3.1 3.1 0 0 1-1.11 1.86 1 1 0 0 0-.21 1.4 1 1 0 0 0 1.4.21 5 5 0 0 0 1.88-3.08 1 1 0 1 0-2-.39zM13.74 21a.62.62 0 0 0 0-.13l-.88-7.11a1 1 0 0 0-2 .25l.88 7a2 2 0 0 1-2 1.91H9.2L9 23l-.2 0a1.53 1.53 0 0 0-.16.11.83.83 0 0 0-.15.11 1.53 1.53 0 0 0-.11.16.86.86 0 0 0-.1.16.65.65 0 0 0 0 .2 1 1 0 0 0 0 .17v0s0 0 0 0L9 48a1.14 1.14 0 0 1-.32.84 1.18 1.18 0 0 1-1.64 0A1.14 1.14 0 0 1 6.73 48l.78-24s0 0 0 0v0a1 1 0 0 0 0-.17.65.65 0 0 0 0-.2.54.54 0 0 0-.1-.16.76.76 0 0 0-.11-.16.83.83 0 0 0-.15-.11A.91.91 0 0 0 6.91 23l-.19 0-.18 0H6A2 2 0 0 1 4 21l.88-7a1 1 0 1 0-2-.25L2 20.83A.62.62 0 0 0 2 21a4 4 0 0 0 3.48 3.91l-.75 23a3.14 3.14 0 0 0 5.39 2.29A3.1 3.1 0 0 0 11 47.91l-.74-23A4 4 0 0 0 13.74 21z" fill="#f5ee9e" class="color000 svgShape"></path><path d="M8.07 22.82a1 1 0 0 0 1-1v-8a1 1 0 0 0-2 0v8A1 1 0 0 0 8.07 22.82zM51.07 27.43a18.23 18.23 0 0 0-.55-2.05l-1.9.63a16.66 16.66 0 0 1 .5 1.84zM47.93 24.24l1.82-.83a21 21 0 0 0-1-1.88l-1.72 1A16 16 0 0 1 47.93 24.24zM44.67 16.68A19.18 19.18 0 0 0 43 15.39L41.86 17a18.89 18.89 0 0 1 1.51 1.16zM47.58 19.77a19.52 19.52 0 0 0-1.37-1.62l-1.46 1.37A16.84 16.84 0 0 1 46 21zM41.18 14.29a21 21 0 0 0-1.93-.9l-.74 1.86a16.69 16.69 0 0 1 1.72.8zM24.47 49.49a19.77 19.77 0 0 0 2 .71L27 48.29c-.6-.18-1.21-.4-1.79-.64zM37.24 12.71a18.64 18.64 0 0 0-2.07-.45l-.33 2a16.65 16.65 0 0 1 1.86.41zM20.76 47.44a19.38 19.38 0 0 0 1.8 1.12l1-1.74a17 17 0 0 1-1.62-1zM47.81 39l1.81.86a20.74 20.74 0 0 0 .81-2l-1.89-.66A15.91 15.91 0 0 1 47.81 39zM43.17 45l1.28 1.54A19.15 19.15 0 0 0 46 45.07l-1.43-1.39A17.11 17.11 0 0 1 43.17 45zM45.82 42.24l1.58 1.23c.43-.56.84-1.15 1.21-1.74l-1.71-1A18.08 18.08 0 0 1 45.82 42.24zM28.53 50.69a18.42 18.42 0 0 0 2.11.26l.14-2a16.83 16.83 0 0 1-1.89-.24zM49.41 29.73a17.34 17.34 0 0 1 .09 1.77v.13l2 0V31.5a18.43 18.43 0 0 0-.1-2zM49.06 35.41l1.95.45a18.42 18.42 0 0 0 .36-2.1l-2-.23A16.39 16.39 0 0 1 49.06 35.41zM40 47.07l.91 1.78a18.6 18.6 0 0 0 1.83-1.07l-1.1-1.67A18 18 0 0 1 40 47.07zM32.69 49l.07 2a20.93 20.93 0 0 0 2.11-.2l-.29-2C34 48.9 33.32 49 32.69 49zM36.45 48.43l.5 1.94a19 19 0 0 0 2-.65l-.71-1.87C37.67 48.07 37.06 48.27 36.45 48.43zM19.7 44h0A17.5 17.5 0 0 1 32 14l1 0 .1-2-1 0A19.5 19.5 0 0 0 18.3 45.37h0c.25.25.5.49.77.72l1.32-1.49L19.7 44z" fill="#f5ee9e" class="color000 svgShape"></path><path d="M34.29,22.71l1.42-1.42-3-3h0a.91.91,0,0,0-.32-.22,1,1,0,0,0-1.09.21l-3,3,1.42,1.42L31,21.41v6.77a3,3,0,0,0-1.64,4.22l-.09-.08-2.83,3-.39-1.7-1.95.46.82,3.51h0a.28.28,0,0,0,0,.09,1,1,0,0,0,.79.67l3.55.6.33-2L27.9,36.7l2.81-3A3,3,0,0,0,35,31a3,3,0,0,0-2-2.82V21.41ZM32,32a1,1,0,1,1,1-1A1,1,0,0,1,32,32Z" fill="#f5ee9e" class="color000 svgShape"></path></g></svg></g></svg>